<?xml version="1.0" encoding="utf-8" standalone="no"?>
<!DOCTYPE svg PUBLIC "-//W3C//DTD SVG 1.1//EN"
  "http://www.w3.org/Graphics/SVG/1.1/DTD/svg11.dtd">
<svg xmlns:xlink="http://www.w3.org/1999/xlink" width="1152pt" height="648pt" viewBox="0 0 1152 648" xmlns="http://www.w3.org/2000/svg" version="1.1">
 <metadata>
  <rdf:RDF xmlns:dc="http://purl.org/dc/elements/1.1/" xmlns:cc="http://creativecommons.org/ns#" xmlns:rdf="http://www.w3.org/1999/02/22-rdf-syntax-ns#">
   <cc:Work>
    <dc:type rdf:resource="http://purl.org/dc/dcmitype/StillImage"/>
    <dc:date>2026-10-03T18:23:56.487510</dc:date>
    <dc:format>image/svg+xml</dc:format>
    <dc:creator>
     <cc:Agent>
      <dc:title>Matplotlib v3.11.2, https://matplotlib.org/</dc:title>
     </cc:Agent>
    </dc:creator>
   </cc:Work>
  </rdf:RDF>
 </metadata>
 <defs>
  <style type="text/css">*{stroke-linejoin: round; stroke-linecap: butt}</style>
 </defs>
 <g id="figure_1">
  <g id="patch_1">
   <path d="M 0 648 
L 1152 648 
L 1152 0 
L 0 0 
z
" style="fill: #ffffff"/>
  </g>
  <g id="axes_1">
   <g id="patch_2">
    <path d="M 291.6 316.8 
Q 316.8 316.8 339.093112 316.8 
" clip-path="url(#pb8e66b885c)" style="fill: none; stroke: #2263bb; stroke-width: 2.6; stroke-linecap: round"/>
    <path d="M 329.893112 312.2 
L 339.093112 316.8 
L 329.893112 321.4 
z
" clip-path="url(#pb8e66b885c)" style="fill: #2263bb; stroke: #2263bb; stroke-width: 2.6; stroke-linecap: round"/>
   </g>
   <g id="patch_3">
    <path d="M 550.8 316.8 
Q 576 316.8 598.293112 316.8 
" clip-path="url(#pb8e66b885c)" style="fill: none; stroke: #2263bb; stroke-width: 2.6; stroke-linecap: round"/>
    <path d="M 589.093112 312.2 
L 598.293112 316.8 
L 589.093112 321.4 
z
" clip-path="url(#pb8e66b885c)" style="fill: #2263bb; stroke: #2263bb; stroke-width: 2.6; stroke-linecap: round"/>
   </g>
   <g id="patch_4">
    <path d="M 810 316.8 
Q 835.2 316.8 857.493112 316.8 
" clip-path="url(#pb8e66b885c)" style="fill: none; stroke: #2263bb; stroke-width: 2.6; stroke-linecap: round"/>
    <path d="M 848.293112 312.2 
L 857.493112 316.8 
L 848.293112 321.4 
z
" clip-path="url(#pb8e66b885c)" style="fill: #2263bb; stroke: #2263bb; stroke-width: 2.6; stroke-linecap: round"/>
   </g>
   <g id="patch_5">
    <path d="M 187.2 240.48 
C 187.2 124.56 705.6 124.56 705.6 237.573112 
" clip-path="url(#pb8e66b885c)" style="fill: none; stroke-dasharray: 15.6,10.4; stroke-dashoffset: 0; stroke: #ac5708; stroke-width: 2.6; stroke-linecap: round"/>
    <path d="M 710.2 228.373112 
L 705.6 237.573112 
L 701 228.373112 
z
" clip-path="url(#pb8e66b885c)" style="fill: #ac5708; stroke-dasharray: 15.6,10.4; stroke-dashoffset: 0; stroke: #ac5708; stroke-width: 2.6; stroke-linecap: round"/>
   </g>
   <g id="patch_6">
    <path d="M 187.2 393.12 
C 187.2 529.92 964.8 529.92 964.8 396.026888 
" clip-path="url(#pb8e66b885c)" style="fill: none; stroke-dasharray: 15.6,10.4; stroke-dashoffset: 0; stroke: #ac5708; stroke-width: 2.6; stroke-linecap: round"/>
    <path d="M 960.2 405.226888 
L 964.8 396.026888 
L 969.4 405.226888 
z
" clip-path="url(#pb8e66b885c)" style="fill: #ac5708; stroke-dasharray: 15.6,10.4; stroke-dashoffset: 0; stroke: #ac5708; stroke-width: 2.6; stroke-linecap: round"/>
   </g>
   <g id="patch_7">
    <path d="M 54 578.16 
Q 74.16 578.16 91.413112 578.16 
" clip-path="url(#pb8e66b885c)" style="fill: none; stroke: #2263bb; stroke-width: 2.6; stroke-linecap: round"/>
    <path d="M 82.213112 573.56 
L 91.413112 578.16 
L 82.213112 582.76 
z
" clip-path="url(#pb8e66b885c)" style="fill: #2263bb; stroke: #2263bb; stroke-width: 2.6; stroke-linecap: round"/>
   </g>
   <g id="patch_8">
    <path d="M 594 578.16 
Q 614.16 578.16 631.413112 578.16 
" clip-path="url(#pb8e66b885c)" style="fill: none; stroke-dasharray: 15.6,10.4; stroke-dashoffset: 0; stroke: #ac5708; stroke-width: 2.6; stroke-linecap: round"/>
    <path d="M 622.213112 573.56 
L 631.413112 578.16 
L 622.213112 582.76 
z
" clip-path="url(#pb8e66b885c)" style="fill: #ac5708; stroke-dasharray: 15.6,10.4; stroke-dashoffset: 0; stroke: #ac5708; stroke-width: 2.6; stroke-linecap: round"/>
   </g>
   <g id="patch_9">
    <path d="M 94.32 392.4 
L 280.08 392.4 
Q 291.6 392.4 291.6 380.88 
L 291.6 252.72 
Q 291.6 241.2 280.08 241.2 
L 94.32 241.2 
Q 82.8 241.2 82.8 252.72 
L 82.8 380.88 
Q 82.8 392.4 94.32 392.4 
z
" clip-path="url(#pb8e66b885c)" style="fill: #ecf3ff; stroke: #2263bb; stroke-width: 1.5; stroke-linejoin: miter"/>
   </g>
   <g id="patch_10">
    <path d="M 353.52 392.4 
L 539.28 392.4 
Q 550.8 392.4 550.8 380.88 
L 550.8 252.72 
Q 550.8 241.2 539.28 241.2 
L 353.52 241.2 
Q 342 241.2 342 252.72 
L 342 380.88 
Q 342 392.4 353.52 392.4 
z
" clip-path="url(#pb8e66b885c)" style="fill: #ecf3ff; stroke: #2263bb; stroke-width: 1.5; stroke-linejoin: miter"/>
   </g>
   <g id="patch_11">
    <path d="M 612.72 392.4 
L 798.48 392.4 
Q 810 392.4 810 380.88 
L 810 252.72 
Q 810 241.2 798.48 241.2 
L 612.72 241.2 
Q 601.2 241.2 601.2 252.72 
L 601.2 380.88 
Q 601.2 392.4 612.72 392.4 
z
" clip-path="url(#pb8e66b885c)" style="fill: #fff3e0; stroke: #ac5708; stroke-width: 1.5; stroke-linejoin: miter"/>
   </g>
   <g id="patch_12">
    <path d="M 871.92 392.4 
L 1057.68 392.4 
Q 1069.2 392.4 1069.2 380.88 
L 1069.2 252.72 
Q 1069.2 241.2 1057.68 241.2 
L 871.92 241.2 
Q 860.4 241.2 860.4 252.72 
L 860.4 380.88 
Q 860.4 392.4 871.92 392.4 
z
" clip-path="url(#pb8e66b885c)" style="fill: #fff3e0; stroke: #ac5708; stroke-width: 1.5; stroke-linejoin: miter"/>
   </g>
   <g id="text_1">
    <text style="font-weight: 700; font-size: 14px; font-family: 'DejaVu Sans'; text-anchor: start; fill: #526176" x="54" y="28.836719" transform="rotate(-0 54 28.836719)">CEDAR UNIVERSITY  /  KNOWLEDGE GRAPH</text>
   </g>
   <g id="text_2">
    <text style="font-size: 14px; font-family: 'DejaVu Sans'; text-anchor: end; fill: #526176" x="1098" y="28.836719" transform="rotate(-0 1098 28.836719)">02</text>
   </g>
   <g id="text_3">
    <text style="font-weight: 700; font-size: 34px; font-family: 'DejaVu Sans'; text-anchor: start; fill: #17283f" x="54" y="78.673359" transform="rotate(-0 54 78.673359)">Traversal reveals indirect prerequisites</text>
   </g>
   <g id="text_4">
    <text style="font-size: 17px; font-family: 'DejaVu Sans'; text-anchor: start; fill: #526176" x="54" y="118.17668" transform="rotate(-0 54 118.17668)">Algorithms (CS202) · two indirect requirements found by graph traversal</text>
   </g>
   <g id="text_5">
    <text style="font-weight: 700; font-size: 25px; font-family: 'DejaVu Sans'; text-anchor: middle; fill: #2263bb" x="187.2" y="277.214141" transform="rotate(-0 187.2 277.214141)">CS202</text>
   </g>
   <g id="text_6">
    <text style="font-size: 18px; font-family: 'DejaVu Sans'; text-anchor: middle; fill: #17283f" x="187.2" y="318.886875" transform="rotate(-0 187.2 318.886875)">Algorithms</text>
   </g>
   <g id="text_7">
    <text style="font-size: 15px; font-family: 'DejaVu Sans'; text-anchor: middle; fill: #526176" x="187.2" y="375.41707" transform="rotate(-0 187.2 375.41707)">4 credits · Spring</text>
   </g>
   <g id="text_8">
    <text style="font-weight: 700; font-size: 25px; font-family: 'DejaVu Sans'; text-anchor: middle; fill: #2263bb" x="446.4" y="277.214141" transform="rotate(-0 446.4 277.214141)">CS201</text>
   </g>
   <g id="text_9">
    <text style="font-size: 18px; font-family: 'DejaVu Sans'; text-anchor: middle; fill: #17283f" x="446.4" y="320.471719" transform="rotate(-0 446.4 320.471719)">Data Structures</text>
   </g>
   <g id="text_10">
    <text style="font-size: 15px; font-family: 'DejaVu Sans'; text-anchor: middle; fill: #526176" x="446.4" y="375.41707" transform="rotate(-0 446.4 375.41707)">4 credits · Fall</text>
   </g>
   <g id="text_11">
    <text style="font-weight: 700; font-size: 25px; font-family: 'DejaVu Sans'; text-anchor: middle; fill: #ac5708" x="705.6" y="277.214141" transform="rotate(-0 705.6 277.214141)">CS102</text>
   </g>
   <g id="text_12">
    <text style="font-size: 18px; font-family: 'DejaVu Sans'; fill: #17283f" transform="translate(633.483281 308.086875)">Object-Oriented</text>
    <text style="font-size: 18px; font-family: 'DejaVu Sans'; fill: #17283f" transform="translate(644.942813 329.686875)">Programming</text>
   </g>
   <g id="text_13">
    <text style="font-size: 15px; font-family: 'DejaVu Sans'; text-anchor: middle; fill: #526176" x="705.6" y="375.41707" transform="rotate(-0 705.6 375.41707)">3 credits · Spring</text>
   </g>
   <g id="text_14">
    <text style="font-weight: 700; font-size: 25px; font-family: 'DejaVu Sans'; text-anchor: middle; fill: #ac5708" x="964.8" y="277.214141" transform="rotate(-0 964.8 277.214141)">CS101</text>
   </g>
   <g id="text_15">
    <text style="font-size: 18px; font-family: 'DejaVu Sans'; fill: #17283f" transform="translate(898.403906 309.830625)">Introduction to</text>
    <text style="font-size: 18px; font-family: 'DejaVu Sans'; fill: #17283f" transform="translate(904.142813 329.686875)">Programming</text>
   </g>
   <g id="text_16">
    <text style="font-size: 15px; font-family: 'DejaVu Sans'; text-anchor: middle; fill: #526176" x="964.8" y="375.41707" transform="rotate(-0 964.8 375.41707)">3 credits · Fall, Spring</text>
   </g>
   <g id="text_17">
    <g id="patch_13">
     <path d="M 304.456641 166.790664 
L 588.343359 166.790664 
L 588.343359 139.929336 
L 304.456641 139.929336 
z
" style="fill: #ffffff"/>
    </g>
    <text style="font-size: 17px; font-family: 'DejaVu Sans'; text-anchor: middle; fill: #ac5708" x="446.4" y="157.77668" transform="rotate(-0 446.4 157.77668)">indirect prerequisite  ·  traversal</text>
   </g>
   <g id="text_18">
    <g id="patch_14">
     <path d="M 434.056641 509.510664 
L 717.943359 509.510664 
L 717.943359 482.649336 
L 434.056641 482.649336 
z
" style="fill: #ffffff"/>
    </g>
    <text style="font-size: 17px; font-family: 'DejaVu Sans'; text-anchor: middle; fill: #ac5708" x="576" y="500.49668" transform="rotate(-0 576 500.49668)">indirect prerequisite  ·  traversal</text>
   </g>
   <g id="text_19">
    <text style="font-size: 16px; font-family: 'DejaVu Sans'; text-anchor: start; fill: #526176" x="105.84" y="582.316875" transform="rotate(-0 105.84 582.316875)">hasDirectPrerequisite · asserted</text>
   </g>
   <g id="text_20">
    <text style="font-size: 16px; font-family: 'DejaVu Sans'; text-anchor: start; fill: #526176" x="645.84" y="582.316875" transform="rotate(-0 645.84 582.316875)">indirect requirement · traversal</text>
   </g>
   <g id="text_21">
    <text style="font-size: 14px; font-family: 'DejaVu Sans'; text-anchor: start; fill: #526176" x="54" y="624.997266" transform="rotate(-0 54 624.997266)">Arrow direction: course → requirement. Dashed shortcuts are traversal results; no new triples are stored.</text>
   </g>
  </g>
 </g>
 <defs>
  <clipPath id="pb8e66b885c">
   <rect x="0" y="0" width="1152" height="648"/>
  </clipPath>
 </defs>
</svg>
