<?xml version="1.0" encoding="utf-8" standalone="no"?>
<!DOCTYPE svg PUBLIC "-//W3C//DTD SVG 1.1//EN"
  "http://www.w3.org/Graphics/SVG/1.1/DTD/svg11.dtd">
<svg xmlns:xlink="http://www.w3.org/1999/xlink" width="1152pt" height="648pt" viewBox="0 0 1152 648" xmlns="http://www.w3.org/2000/svg" version="1.1">
 <metadata>
  <rdf:RDF xmlns:dc="http://purl.org/dc/elements/1.1/" xmlns:cc="http://creativecommons.org/ns#" xmlns:rdf="http://www.w3.org/1999/02/22-rdf-syntax-ns#">
   <cc:Work>
    <dc:type rdf:resource="http://purl.org/dc/dcmitype/StillImage"/>
    <dc:date>2026-10-03T18:23:56.666563</dc:date>
    <dc:format>image/svg+xml</dc:format>
    <dc:creator>
     <cc:Agent>
      <dc:title>Matplotlib v3.11.2, https://matplotlib.org/</dc:title>
     </cc:Agent>
    </dc:creator>
   </cc:Work>
  </rdf:RDF>
 </metadata>
 <defs>
  <style type="text/css">*{stroke-linejoin: round; stroke-linecap: butt}</style>
 </defs>
 <g id="figure_1">
  <g id="patch_1">
   <path d="M 0 648 
L 1152 648 
L 1152 0 
L 0 0 
z
" style="fill: #ffffff"/>
  </g>
  <g id="axes_1">
   <g id="patch_2">
    <path d="M 291.6 316.8 
Q 316.8 316.8 339.093112 316.8 
" clip-path="url(#pee3ffc32ce)" style="fill: none; stroke: #087a70; stroke-width: 2.6; stroke-linecap: round"/>
    <path d="M 329.893112 312.2 
L 339.093112 316.8 
L 329.893112 321.4 
z
" clip-path="url(#pee3ffc32ce)" style="fill: #087a70; stroke: #087a70; stroke-width: 2.6; stroke-linecap: round"/>
   </g>
   <g id="patch_3">
    <path d="M 550.8 316.8 
Q 576 316.8 598.293112 316.8 
" clip-path="url(#pee3ffc32ce)" style="fill: none; stroke: #7041b5; stroke-width: 2.6; stroke-linecap: round"/>
    <path d="M 589.093112 312.2 
L 598.293112 316.8 
L 589.093112 321.4 
z
" clip-path="url(#pee3ffc32ce)" style="fill: #7041b5; stroke: #7041b5; stroke-width: 2.6; stroke-linecap: round"/>
   </g>
   <g id="patch_4">
    <path d="M 810 316.8 
Q 835.2 316.8 857.493112 316.8 
" clip-path="url(#pee3ffc32ce)" style="fill: none; stroke: #7041b5; stroke-width: 2.6; stroke-linecap: round"/>
    <path d="M 848.293112 312.2 
L 857.493112 316.8 
L 848.293112 321.4 
z
" clip-path="url(#pee3ffc32ce)" style="fill: #7041b5; stroke: #7041b5; stroke-width: 2.6; stroke-linecap: round"/>
   </g>
   <g id="patch_5">
    <path d="M 187.2 240.48 
C 187.2 124.56 964.8 124.56 964.8 237.573112 
" clip-path="url(#pee3ffc32ce)" style="fill: none; stroke-dasharray: 15.6,10.4; stroke-dashoffset: 0; stroke: #ac5708; stroke-width: 2.6; stroke-linecap: round"/>
    <path d="M 969.4 228.373112 
L 964.8 237.573112 
L 960.2 228.373112 
z
" clip-path="url(#pee3ffc32ce)" style="fill: #ac5708; stroke-dasharray: 15.6,10.4; stroke-dashoffset: 0; stroke: #ac5708; stroke-width: 2.6; stroke-linecap: round"/>
   </g>
   <g id="patch_6">
    <path d="M 54 578.16 
Q 74.16 578.16 91.413112 578.16 
" clip-path="url(#pee3ffc32ce)" style="fill: none; stroke: #087a70; stroke-width: 2.6; stroke-linecap: round"/>
    <path d="M 82.213112 573.56 
L 91.413112 578.16 
L 82.213112 582.76 
z
" clip-path="url(#pee3ffc32ce)" style="fill: #087a70; stroke: #087a70; stroke-width: 2.6; stroke-linecap: round"/>
   </g>
   <g id="patch_7">
    <path d="M 378 578.16 
Q 398.16 578.16 415.413112 578.16 
" clip-path="url(#pee3ffc32ce)" style="fill: none; stroke: #7041b5; stroke-width: 2.6; stroke-linecap: round"/>
    <path d="M 406.213112 573.56 
L 415.413112 578.16 
L 406.213112 582.76 
z
" clip-path="url(#pee3ffc32ce)" style="fill: #7041b5; stroke: #7041b5; stroke-width: 2.6; stroke-linecap: round"/>
   </g>
   <g id="patch_8">
    <path d="M 802.8 578.16 
Q 822.96 578.16 840.213112 578.16 
" clip-path="url(#pee3ffc32ce)" style="fill: none; stroke-dasharray: 15.6,10.4; stroke-dashoffset: 0; stroke: #ac5708; stroke-width: 2.6; stroke-linecap: round"/>
    <path d="M 831.013112 573.56 
L 840.213112 578.16 
L 831.013112 582.76 
z
" clip-path="url(#pee3ffc32ce)" style="fill: #ac5708; stroke-dasharray: 15.6,10.4; stroke-dashoffset: 0; stroke: #ac5708; stroke-width: 2.6; stroke-linecap: round"/>
   </g>
   <g id="patch_9">
    <path d="M 94.32 392.4 
L 280.08 392.4 
Q 291.6 392.4 291.6 380.88 
L 291.6 252.72 
Q 291.6 241.2 280.08 241.2 
L 94.32 241.2 
Q 82.8 241.2 82.8 252.72 
L 82.8 380.88 
Q 82.8 392.4 94.32 392.4 
z
" clip-path="url(#pee3ffc32ce)" style="fill: #ecf3ff; stroke: #2263bb; stroke-width: 1.5; stroke-linejoin: miter"/>
   </g>
   <g id="patch_10">
    <path d="M 353.52 392.4 
L 539.28 392.4 
Q 550.8 392.4 550.8 380.88 
L 550.8 252.72 
Q 550.8 241.2 539.28 241.2 
L 353.52 241.2 
Q 342 241.2 342 252.72 
L 342 380.88 
Q 342 392.4 353.52 392.4 
z
" clip-path="url(#pee3ffc32ce)" style="fill: #f3edfb; stroke: #7041b5; stroke-width: 1.5; stroke-linejoin: miter"/>
   </g>
   <g id="patch_11">
    <path d="M 612.72 392.4 
L 798.48 392.4 
Q 810 392.4 810 380.88 
L 810 252.72 
Q 810 241.2 798.48 241.2 
L 612.72 241.2 
Q 601.2 241.2 601.2 252.72 
L 601.2 380.88 
Q 601.2 392.4 612.72 392.4 
z
" clip-path="url(#pee3ffc32ce)" style="fill: #f3edfb; stroke: #7041b5; stroke-width: 1.5; stroke-linejoin: miter"/>
   </g>
   <g id="patch_12">
    <path d="M 871.92 392.4 
L 1057.68 392.4 
Q 1069.2 392.4 1069.2 380.88 
L 1069.2 252.72 
Q 1069.2 241.2 1057.68 241.2 
L 871.92 241.2 
Q 860.4 241.2 860.4 252.72 
L 860.4 380.88 
Q 860.4 392.4 871.92 392.4 
z
" clip-path="url(#pee3ffc32ce)" style="fill: #f3edfb; stroke: #7041b5; stroke-width: 1.5; stroke-linejoin: miter"/>
   </g>
   <g id="text_1">
    <text style="font-weight: 700; font-size: 14px; font-family: 'DejaVu Sans'; text-anchor: start; fill: #526176" x="54" y="28.836719" transform="rotate(-0 54 28.836719)">CEDAR UNIVERSITY  /  KNOWLEDGE GRAPH</text>
   </g>
   <g id="text_2">
    <text style="font-size: 14px; font-family: 'DejaVu Sans'; text-anchor: end; fill: #526176" x="1098" y="28.836719" transform="rotate(-0 1098 28.836719)">03</text>
   </g>
   <g id="text_3">
    <text style="font-weight: 700; font-size: 34px; font-family: 'DejaVu Sans'; text-anchor: start; fill: #17283f" x="54" y="78.673359" transform="rotate(-0 54 78.673359)">Why Deep Learning is an AI course</text>
   </g>
   <g id="text_4">
    <text style="font-size: 17px; font-family: 'DejaVu Sans'; text-anchor: start; fill: #526176" x="54" y="118.17668" transform="rotate(-0 54 118.17668)">Following subclass edges finds the parent AI category</text>
   </g>
   <g id="text_5">
    <text style="font-weight: 700; font-size: 25px; font-family: 'DejaVu Sans'; text-anchor: middle; fill: #2263bb" x="187.2" y="277.214141" transform="rotate(-0 187.2 277.214141)">ML301</text>
   </g>
   <g id="text_6">
    <text style="font-size: 18px; font-family: 'DejaVu Sans'; text-anchor: middle; fill: #17283f" x="187.2" y="318.886875" transform="rotate(-0 187.2 318.886875)">Deep Learning</text>
   </g>
   <g id="text_7">
    <text style="font-size: 15px; font-family: 'DejaVu Sans'; text-anchor: middle; fill: #526176" x="187.2" y="375.41707" transform="rotate(-0 187.2 375.41707)">4 credits · Spring</text>
   </g>
   <g id="text_8">
    <text style="font-weight: 700; font-size: 14px; font-family: 'DejaVu Sans'; text-anchor: middle; fill: #7041b5" x="446.4" y="272.916719" transform="rotate(-0 446.4 272.916719)">CLASS</text>
   </g>
   <g id="text_9">
    <text style="font-weight: 700; font-size: 23px; font-family: 'DejaVu Sans'; text-anchor: middle; fill: #17283f" x="446.4" y="318.736719" transform="rotate(-0 446.4 318.736719)">Deep Learning</text>
   </g>
   <g id="text_10">
    <text style="font-size: 14px; font-family: 'DejaVu Sans'; text-anchor: middle; fill: #526176" x="446.4" y="375.157266" transform="rotate(-0 446.4 375.157266)">DeepLearningCourse</text>
   </g>
   <g id="text_11">
    <text style="font-weight: 700; font-size: 14px; font-family: 'DejaVu Sans'; text-anchor: middle; fill: #7041b5" x="705.6" y="272.916719" transform="rotate(-0 705.6 272.916719)">CLASS</text>
   </g>
   <g id="text_12">
    <text style="font-weight: 700; font-size: 23px; font-family: 'DejaVu Sans'; fill: #17283f" transform="translate(651.461953 307.254688)">Machine</text>
    <text style="font-weight: 700; font-size: 23px; font-family: 'DejaVu Sans'; fill: #17283f" transform="translate(648.493516 332.536719)">Learning</text>
   </g>
   <g id="text_13">
    <text style="font-size: 14px; font-family: 'DejaVu Sans'; text-anchor: middle; fill: #526176" x="705.6" y="375.157266" transform="rotate(-0 705.6 375.157266)">MachineLearningCourse</text>
   </g>
   <g id="text_14">
    <text style="font-weight: 700; font-size: 14px; font-family: 'DejaVu Sans'; text-anchor: middle; fill: #7041b5" x="964.8" y="272.916719" transform="rotate(-0 964.8 272.916719)">CLASS</text>
   </g>
   <g id="text_15">
    <text style="font-weight: 700; font-size: 23px; font-family: 'DejaVu Sans'; text-anchor: middle; fill: #17283f" x="964.8" y="320.864219" transform="rotate(-0 964.8 320.864219)">AI</text>
   </g>
   <g id="text_16">
    <text style="font-size: 14px; font-family: 'DejaVu Sans'; text-anchor: middle; fill: #526176" x="964.8" y="375.156719" transform="rotate(-0 964.8 375.156719)">AICourse</text>
   </g>
   <g id="text_17">
    <g id="patch_13">
     <path d="M 426.022812 166.790664 
L 725.977188 166.790664 
L 725.977188 139.929336 
L 426.022812 139.929336 
z
" style="fill: #ffffff"/>
    </g>
    <text style="font-size: 17px; font-family: 'DejaVu Sans'; text-anchor: middle; fill: #ac5708" x="576" y="157.77668" transform="rotate(-0 576 157.77668)">category membership  ·  traversal</text>
   </g>
   <g id="text_18">
    <text style="font-weight: 700; font-size: 23px; font-family: 'DejaVu Sans'; text-anchor: middle; fill: #17283f" x="576" y="474.695508" transform="rotate(-0 576 474.695508)">ML301 is retrieved when a student asks for AI courses.</text>
   </g>
   <g id="text_19">
    <text style="font-size: 18px; font-family: 'DejaVu Sans'; text-anchor: middle; fill: #526176" x="576" y="513.716484" transform="rotate(-0 576 513.716484)">Class membership and prerequisite relationships are separate facts.</text>
   </g>
   <g id="text_20">
    <text style="font-size: 16px; font-family: 'DejaVu Sans'; text-anchor: start; fill: #526176" x="105.84" y="582.316875" transform="rotate(-0 105.84 582.316875)">rdf:type · asserted</text>
   </g>
   <g id="text_21">
    <text style="font-size: 16px; font-family: 'DejaVu Sans'; text-anchor: start; fill: #526176" x="429.84" y="582.316875" transform="rotate(-0 429.84 582.316875)">rdfs:subClassOf · asserted</text>
   </g>
   <g id="text_22">
    <text style="font-size: 16px; font-family: 'DejaVu Sans'; text-anchor: start; fill: #526176" x="854.64" y="582.316875" transform="rotate(-0 854.64 582.316875)">category · traversal</text>
   </g>
   <g id="text_23">
    <text style="font-size: 14px; font-family: 'DejaVu Sans'; text-anchor: start; fill: #526176" x="54" y="624.997266" transform="rotate(-0 54 624.997266)">Course instances appear in blue; classes in purple. Dashed category matches are derived without adding triples.</text>
   </g>
  </g>
 </g>
 <defs>
  <clipPath id="pee3ffc32ce">
   <rect x="0" y="0" width="1152" height="648"/>
  </clipPath>
 </defs>
</svg>
