<?xml version="1.0" encoding="utf-8" standalone="no"?>
<!DOCTYPE svg PUBLIC "-//W3C//DTD SVG 1.1//EN"
  "http://www.w3.org/Graphics/SVG/1.1/DTD/svg11.dtd">
<svg xmlns:xlink="http://www.w3.org/1999/xlink" width="1152pt" height="648pt" viewBox="0 0 1152 648" xmlns="http://www.w3.org/2000/svg" version="1.1">
 <metadata>
  <rdf:RDF xmlns:dc="http://purl.org/dc/elements/1.1/" xmlns:cc="http://creativecommons.org/ns#" xmlns:rdf="http://www.w3.org/1999/02/22-rdf-syntax-ns#">
   <cc:Work>
    <dc:type rdf:resource="http://purl.org/dc/dcmitype/StillImage"/>
    <dc:date>2026-10-03T17:06:58.574055</dc:date>
    <dc:format>image/svg+xml</dc:format>
    <dc:creator>
     <cc:Agent>
      <dc:title>Matplotlib v3.11.2, https://matplotlib.org/</dc:title>
     </cc:Agent>
    </dc:creator>
   </cc:Work>
  </rdf:RDF>
 </metadata>
 <defs>
  <style type="text/css">*{stroke-linejoin: round; stroke-linecap: butt}</style>
 </defs>
 <g id="figure_1">
  <g id="patch_1">
   <path d="M 0 648 
L 1152 648 
L 1152 0 
L 0 0 
z
" style="fill: #ffffff"/>
  </g>
  <g id="axes_1">
   <g id="patch_2">
    <path d="M 327.6 315.36 
C 376.56 315.36 381.6 212.4 430.893112 212.4 
" clip-path="url(#pa769015cbe)" style="fill: none; stroke: #2263bb; stroke-width: 2.6; stroke-linecap: round"/>
    <path d="M 421.693112 207.8 
L 430.893112 212.4 
L 421.693112 217 
z
" clip-path="url(#pa769015cbe)" style="fill: #2263bb; stroke: #2263bb; stroke-width: 2.6; stroke-linecap: round"/>
   </g>
   <g id="patch_3">
    <path d="M 682.2 212.4 
Q 729 212.4 772.893112 212.4 
" clip-path="url(#pa769015cbe)" style="fill: none; stroke: #7041b5; stroke-width: 2.6; stroke-linecap: round"/>
    <path d="M 763.693112 207.8 
L 772.893112 212.4 
L 763.693112 217 
z
" clip-path="url(#pa769015cbe)" style="fill: #7041b5; stroke: #7041b5; stroke-width: 2.6; stroke-linecap: round"/>
   </g>
   <g id="patch_4">
    <path d="M 327.6 352.8 
C 376.56 352.8 381.6 352.8 430.893112 352.8 
" clip-path="url(#pa769015cbe)" style="fill: none; stroke: #2263bb; stroke-width: 2.6; stroke-linecap: round"/>
    <path d="M 421.693112 348.2 
L 430.893112 352.8 
L 421.693112 357.4 
z
" clip-path="url(#pa769015cbe)" style="fill: #2263bb; stroke: #2263bb; stroke-width: 2.6; stroke-linecap: round"/>
   </g>
   <g id="patch_5">
    <path d="M 682.2 352.8 
Q 729 352.8 772.893112 352.8 
" clip-path="url(#pa769015cbe)" style="fill: none; stroke: #7041b5; stroke-width: 2.6; stroke-linecap: round"/>
    <path d="M 763.693112 348.2 
L 772.893112 352.8 
L 763.693112 357.4 
z
" clip-path="url(#pa769015cbe)" style="fill: #7041b5; stroke: #7041b5; stroke-width: 2.6; stroke-linecap: round"/>
   </g>
   <g id="patch_6">
    <path d="M 327.6 390.24 
C 376.56 390.24 381.6 493.2 430.893112 493.2 
" clip-path="url(#pa769015cbe)" style="fill: none; stroke: #2263bb; stroke-width: 2.6; stroke-linecap: round"/>
    <path d="M 421.693112 488.6 
L 430.893112 493.2 
L 421.693112 497.8 
z
" clip-path="url(#pa769015cbe)" style="fill: #2263bb; stroke: #2263bb; stroke-width: 2.6; stroke-linecap: round"/>
   </g>
   <g id="patch_7">
    <path d="M 682.2 493.2 
Q 729 493.2 772.893112 493.2 
" clip-path="url(#pa769015cbe)" style="fill: none; stroke: #7041b5; stroke-width: 2.6; stroke-linecap: round"/>
    <path d="M 763.693112 488.6 
L 772.893112 493.2 
L 763.693112 497.8 
z
" clip-path="url(#pa769015cbe)" style="fill: #7041b5; stroke: #7041b5; stroke-width: 2.6; stroke-linecap: round"/>
   </g>
   <g id="patch_8">
    <path d="M 54 578.88 
Q 74.16 578.88 91.413112 578.88 
" clip-path="url(#pa769015cbe)" style="fill: none; stroke: #2263bb; stroke-width: 2.6; stroke-linecap: round"/>
    <path d="M 82.213112 574.28 
L 91.413112 578.88 
L 82.213112 583.48 
z
" clip-path="url(#pa769015cbe)" style="fill: #2263bb; stroke: #2263bb; stroke-width: 2.6; stroke-linecap: round"/>
   </g>
   <g id="patch_9">
    <path d="M 597.6 578.88 
Q 617.76 578.88 635.013112 578.88 
" clip-path="url(#pa769015cbe)" style="fill: none; stroke: #7041b5; stroke-width: 2.6; stroke-linecap: round"/>
    <path d="M 625.813112 574.28 
L 635.013112 578.88 
L 625.813112 583.48 
z
" clip-path="url(#pa769015cbe)" style="fill: #7041b5; stroke: #7041b5; stroke-width: 2.6; stroke-linecap: round"/>
   </g>
   <g id="patch_10">
    <path d="M 65.52 437.4 
L 316.08 437.4 
Q 327.6 437.4 327.6 425.88 
L 327.6 279.72 
Q 327.6 268.2 316.08 268.2 
L 65.52 268.2 
Q 54 268.2 54 279.72 
L 54 425.88 
Q 54 437.4 65.52 437.4 
z
" clip-path="url(#pa769015cbe)" style="fill: #ecf3ff; stroke: #2263bb; stroke-width: 1.5; stroke-linejoin: miter"/>
   </g>
   <g id="patch_11">
    <path d="M 445.32 273.6 
L 670.68 273.6 
Q 682.2 273.6 682.2 262.08 
L 682.2 162.72 
Q 682.2 151.2 670.68 151.2 
L 445.32 151.2 
Q 433.8 151.2 433.8 162.72 
L 433.8 262.08 
Q 433.8 273.6 445.32 273.6 
z
" clip-path="url(#pa769015cbe)" style="fill: #f3edfb; stroke: #7041b5; stroke-width: 1.5; stroke-linejoin: miter"/>
   </g>
   <g id="patch_12">
    <path d="M 787.32 273.6 
L 1077.48 273.6 
Q 1089 273.6 1089 262.08 
L 1089 162.72 
Q 1089 151.2 1077.48 151.2 
L 787.32 151.2 
Q 775.8 151.2 775.8 162.72 
L 775.8 262.08 
Q 775.8 273.6 787.32 273.6 
z
" clip-path="url(#pa769015cbe)" style="fill: #fff3e0; stroke: #ac5708; stroke-width: 1.5; stroke-linejoin: miter"/>
   </g>
   <g id="patch_13">
    <path d="M 445.32 414 
L 670.68 414 
Q 682.2 414 682.2 402.48 
L 682.2 303.12 
Q 682.2 291.6 670.68 291.6 
L 445.32 291.6 
Q 433.8 291.6 433.8 303.12 
L 433.8 402.48 
Q 433.8 414 445.32 414 
z
" clip-path="url(#pa769015cbe)" style="fill: #f3edfb; stroke: #7041b5; stroke-width: 1.5; stroke-linejoin: miter"/>
   </g>
   <g id="patch_14">
    <path d="M 787.32 414 
L 1077.48 414 
Q 1089 414 1089 402.48 
L 1089 303.12 
Q 1089 291.6 1077.48 291.6 
L 787.32 291.6 
Q 775.8 291.6 775.8 303.12 
L 775.8 402.48 
Q 775.8 414 787.32 414 
z
" clip-path="url(#pa769015cbe)" style="fill: #fff3e0; stroke: #ac5708; stroke-width: 1.5; stroke-linejoin: miter"/>
   </g>
   <g id="patch_15">
    <path d="M 445.32 554.4 
L 670.68 554.4 
Q 682.2 554.4 682.2 542.88 
L 682.2 443.52 
Q 682.2 432 670.68 432 
L 445.32 432 
Q 433.8 432 433.8 443.52 
L 433.8 542.88 
Q 433.8 554.4 445.32 554.4 
z
" clip-path="url(#pa769015cbe)" style="fill: #f3edfb; stroke: #7041b5; stroke-width: 1.5; stroke-linejoin: miter"/>
   </g>
   <g id="patch_16">
    <path d="M 787.32 554.4 
L 1077.48 554.4 
Q 1089 554.4 1089 542.88 
L 1089 443.52 
Q 1089 432 1077.48 432 
L 787.32 432 
Q 775.8 432 775.8 443.52 
L 775.8 542.88 
Q 775.8 554.4 787.32 554.4 
z
" clip-path="url(#pa769015cbe)" style="fill: #fff3e0; stroke: #ac5708; stroke-width: 1.5; stroke-linejoin: miter"/>
   </g>
   <g id="text_1">
    <text style="font-weight: 700; font-size: 14px; font-family: 'DejaVu Sans'; text-anchor: start; fill: #526176" x="54" y="28.836719" transform="rotate(-0 54 28.836719)">LW-KG  /  MANUFACTURING ROOT-CAUSE ANALYSIS</text>
   </g>
   <g id="text_2">
    <text style="font-size: 14px; font-family: 'DejaVu Sans'; text-anchor: end; fill: #526176" x="1098" y="28.836719" transform="rotate(-0 1098 28.836719)">01</text>
   </g>
   <g id="text_3">
    <text style="font-weight: 700; font-size: 34px; font-family: 'DejaVu Sans'; text-anchor: start; fill: #17283f" x="54" y="78.673359" transform="rotate(-0 54 78.673359)">From a QC symptom to candidate causes</text>
   </g>
   <g id="text_4">
    <text style="font-size: 17px; font-family: 'DejaVu Sans'; text-anchor: start; fill: #526176" x="54" y="118.17668" transform="rotate(-0 54 118.17668)">Low QC efficiency points to three possible failure modes and their recorded causes.</text>
   </g>
   <g id="text_5">
    <text style="font-weight: 700; font-size: 14px; font-family: 'DejaVu Sans'; text-anchor: middle; fill: #2263bb" x="190.8" y="291.996719" transform="rotate(-0 190.8 291.996719)">SYMPTOM</text>
   </g>
   <g id="text_6">
    <text style="font-weight: 700; font-size: 25px; font-family: 'DejaVu Sans'; fill: #17283f" transform="translate(99.596875 350.360781)">QC efficiency</text>
    <text style="font-weight: 700; font-size: 25px; font-family: 'DejaVu Sans'; fill: #17283f" transform="translate(92.538281 382.880313)">below 99.99%</text>
   </g>
   <g id="text_7">
    <text style="font-weight: 700; font-size: 14px; font-family: 'DejaVu Sans'; text-anchor: middle; fill: #7041b5" x="558" y="174.996719" transform="rotate(-0 558 174.996719)">FAILURE MODE</text>
   </g>
   <g id="text_8">
    <text style="font-weight: 700; font-size: 20px; font-family: 'DejaVu Sans'; text-anchor: middle; fill: #17283f" x="558" y="223.370938" transform="rotate(-0 558 223.370938)">Test setup error</text>
   </g>
   <g id="text_9">
    <text style="font-weight: 700; font-size: 14px; font-family: 'DejaVu Sans'; text-anchor: middle; fill: #ac5708" x="932.4" y="174.996719" transform="rotate(-0 932.4 174.996719)">CAUSE</text>
   </g>
   <g id="text_10">
    <text style="font-weight: 700; font-size: 20px; font-family: 'DejaVu Sans'; fill: #17283f" transform="translate(830.384375 211.600625)">Wrong QC ingoing</text>
    <text style="font-weight: 700; font-size: 20px; font-family: 'DejaVu Sans'; fill: #17283f" transform="translate(819.404687 235.67875)">pressure for variant</text>
   </g>
   <g id="text_11">
    <text style="font-weight: 700; font-size: 14px; font-family: 'DejaVu Sans'; text-anchor: middle; fill: #7041b5" x="558" y="315.396719" transform="rotate(-0 558 315.396719)">FAILURE MODE</text>
   </g>
   <g id="text_12">
    <text style="font-weight: 700; font-size: 20px; font-family: 'DejaVu Sans'; fill: #17283f" transform="translate(494.9 342.01625)">Insufficient</text>
    <text style="font-weight: 700; font-size: 20px; font-family: 'DejaVu Sans'; fill: #17283f" transform="translate(485.735937 364.000625)">hardening of</text>
    <text style="font-weight: 700; font-size: 20px; font-family: 'DejaVu Sans'; fill: #17283f" transform="translate(515.96875 388.000625)">coating</text>
   </g>
   <g id="text_13">
    <text style="font-weight: 700; font-size: 14px; font-family: 'DejaVu Sans'; text-anchor: middle; fill: #ac5708" x="932.4" y="315.396719" transform="rotate(-0 932.4 315.396719)">CAUSE</text>
   </g>
   <g id="text_14">
    <text style="font-weight: 700; font-size: 20px; font-family: 'DejaVu Sans'; fill: #17283f" transform="translate(824.807812 353.230313)">Oven control drift /</text>
    <text style="font-weight: 700; font-size: 20px; font-family: 'DejaVu Sans'; fill: #17283f" transform="translate(847.5 376.000625)">cycle deviation</text>
   </g>
   <g id="text_15">
    <text style="font-weight: 700; font-size: 14px; font-family: 'DejaVu Sans'; text-anchor: middle; fill: #7041b5" x="558" y="455.796719" transform="rotate(-0 558 455.796719)">FAILURE MODE</text>
   </g>
   <g id="text_16">
    <text style="font-weight: 700; font-size: 20px; font-family: 'DejaVu Sans'; fill: #17283f" transform="translate(469.123438 492.092813)">Rotor geometry</text>
    <text style="font-weight: 700; font-size: 20px; font-family: 'DejaVu Sans'; fill: #17283f" transform="translate(505.167188 518.41625)">deviation</text>
   </g>
   <g id="text_17">
    <text style="font-weight: 700; font-size: 14px; font-family: 'DejaVu Sans'; text-anchor: middle; fill: #ac5708" x="932.4" y="455.796719" transform="rotate(-0 932.4 455.796719)">CAUSE</text>
   </g>
   <g id="text_18">
    <text style="font-weight: 700; font-size: 20px; font-family: 'DejaVu Sans'; text-anchor: middle; fill: #17283f" x="932.4" y="504.400625" transform="rotate(-0 932.4 504.400625)">Tool wear high</text>
   </g>
   <g id="text_19">
    <text style="font-size: 16px; font-family: 'DejaVu Sans'; text-anchor: start; fill: #526176" x="105.84" y="583.036875" transform="rotate(-0 105.84 583.036875)">suggestsFailureMode · recorded</text>
   </g>
   <g id="text_20">
    <text style="font-size: 16px; font-family: 'DejaVu Sans'; text-anchor: start; fill: #526176" x="649.44" y="583.036875" transform="rotate(-0 649.44 583.036875)">hasCause · recorded</text>
   </g>
   <g id="text_21">
    <text style="font-size: 14px; font-family: 'DejaVu Sans'; text-anchor: start; fill: #526176" x="54" y="624.997266" transform="rotate(-0 54 624.997266)">Graph-linked candidates, not confirmed diagnoses. Other symptoms, parameters, checks and SOP links omitted.</text>
   </g>
  </g>
 </g>
 <defs>
  <clipPath id="pa769015cbe">
   <rect x="0" y="0" width="1152" height="648"/>
  </clipPath>
 </defs>
</svg>
